<svg xmlns="http://www.w3.org/2000/svg" viewBox="0 0 800 600">
  <rect x="0" y="0" width="800" height="600" rx="16" fill="#16233F"/>

  <!-- header: sparkle + label -->
  <g transform="translate(48,44)">
    <path d="M20 0l3 14 14 3-14 3-3 14-3-14L3 17l14-3z" fill="#C1653D"/>
  </g>
  <rect x="104" y="55" width="150" height="10" rx="3" fill="#F5F1E8" fill-opacity="0.2"/>

  <!-- stepper -->
  <line x1="112" y1="150" x2="388" y2="150" stroke="#7A9B85" stroke-width="3"/>
  <line x1="412" y1="150" x2="688" y2="150" stroke="#C1653D" stroke-width="3"/>
  <circle cx="100" cy="150" r="20" fill="#7A9B85"/>
  <path d="M91 150l6 6 12-13" fill="none" stroke="#16233F" stroke-width="3" stroke-linecap="round" stroke-linejoin="round"/>
  <circle cx="400" cy="150" r="20" fill="#7A9B85"/>
  <path d="M391 150l6 6 12-13" fill="none" stroke="#16233F" stroke-width="3" stroke-linecap="round" stroke-linejoin="round"/>
  <circle cx="700" cy="150" r="20" fill="#16233F" stroke="#C1653D" stroke-width="4"/>

  <!-- question card -->
  <rect x="70" y="210" width="660" height="260" rx="10" fill="#F5F1E8" fill-opacity="0.06"/>
  <rect x="100" y="240" width="440" height="12" rx="4" fill="#F5F1E8" fill-opacity="0.18"/>
  <rect x="100" y="290" width="600" height="52" rx="8" fill="none" stroke="#F5F1E8" stroke-opacity="0.22" stroke-width="2"/>
  <rect x="100" y="364" width="600" height="52" rx="8" fill="none" stroke="#F5F1E8" stroke-opacity="0.22" stroke-width="2"/>

  <!-- outcome tags -->
  <rect x="205" y="510" width="170" height="46" rx="23" fill="#7A9B85" fill-opacity="0.16" stroke="#7A9B85" stroke-width="2"/>
  <path d="M221 533l6 6 11-12" fill="none" stroke="#7A9B85" stroke-width="3" stroke-linecap="round" stroke-linejoin="round"/>
  <text x="248" y="540" text-anchor="start" font-family="Inter, Arial, sans-serif" font-weight="600" font-size="20" fill="#F5F1E8">Resolved</text>

  <rect x="445" y="510" width="150" height="46" rx="23" fill="#E0A85C" fill-opacity="0.16" stroke="#E0A85C" stroke-width="2"/>
  <text x="520" y="540" text-anchor="middle" font-family="Inter, Arial, sans-serif" font-weight="600" font-size="20" fill="#F5F1E8">Escalated</text>
</svg>
